<svg width="1920" height="738" viewBox="0 0 1920 738" fill="none" xmlns="http://www.w3.org/2000/svg">
<g clip-path="url(#clip0_694_854)">
<g opacity="0.35">
<path d="M861.755 -48.8744C960.45 -36.5744 1012.35 19.4256 976.949 153.426C926.652 248.526 952.25 296.526 1024.15 314.426C1159.34 348.126 1458.32 275.326 1722.71 211.026C1792.01 194.126 1859 177.826 1920 164.226V163.626C1858.9 177.326 1791.91 193.626 1722.41 210.526C1458.12 274.826 1159.34 347.626 1024.45 313.926C953.05 296.126 927.652 248.426 977.749 153.626C1013.25 19.2256 961.15 -36.9744 861.955 -49.3744C730.462 -65.7744 516.173 -5.07439 313.884 52.2256C199.69 84.4256 89.3953 115.626 0 131.326V131.926C89.4953 116.226 199.89 84.9256 314.084 52.6256C516.273 -4.5744 730.462 -65.2744 861.755 -48.8744Z" fill="white"/>
<path d="M858.455 -31.8744C954.55 -19.1744 1004.25 35.0256 968.549 162.726C910.553 264.826 933.051 316.126 1004.35 335.226C1136.94 370.726 1438.53 294.526 1706.71 226.826C1781.91 207.826 1854.4 189.526 1919.8 174.526V173.926C1854.3 188.926 1781.71 207.226 1706.41 226.226C1438.33 293.926 1136.84 370.026 1004.65 334.626C933.751 315.626 911.553 264.626 969.35 162.826C1005.25 34.6256 955.15 -19.7744 858.555 -32.5744C727.762 -49.7744 511.573 9.6256 308.184 65.5256C196.09 96.5256 87.8954 126.326 0 141.526V142.126C87.9954 126.926 196.29 97.1256 308.584 66.2256C511.873 10.3256 727.962 -49.0744 858.455 -31.8744Z" fill="white"/>
<path d="M855.455 -14.6744C948.651 -1.67444 996.248 50.7256 960.35 172.326C894.653 281.626 914.052 336.326 985.249 356.426C1115.64 393.326 1420.23 313.826 1692.11 242.826C1772.71 221.726 1850.4 201.426 1919.9 185.226V184.626C1850.3 200.926 1772.51 221.226 1691.81 242.326C1420.03 313.326 1115.64 392.726 985.549 355.926C914.852 335.926 895.653 281.526 961.15 172.526C997.248 50.5256 949.351 -2.07444 855.655 -15.1744C725.562 -33.2744 507.174 24.9256 302.484 79.4256C192.39 108.626 86.2955 136.926 0 151.726V152.326C86.2955 137.526 192.59 109.226 302.784 79.9256C507.374 25.3256 725.662 -32.7744 855.455 -14.6744Z" fill="white"/>
<path d="M865.155 -65.9743C966.45 -53.9743 1020.35 3.72566 985.249 143.926C942.351 232.326 971.549 276.926 1044.45 293.626C1182.84 325.226 1479.32 255.926 1739.91 194.926C1803.01 180.126 1863.9 165.926 1920 153.726V153.126C1863.8 165.326 1802.81 179.626 1739.61 194.426C1479.12 255.426 1182.84 324.726 1044.75 293.126C972.349 276.526 943.451 232.226 986.149 144.126C1021.35 3.52567 967.25 -54.3743 865.455 -66.3743C733.262 -81.9743 520.673 -19.9743 319.283 38.6256C203.189 72.3257 90.8953 105.026 0 121.226V121.826C90.9953 105.626 203.389 72.9256 319.483 39.1256C520.673 -19.5744 733.162 -81.5743 865.155 -65.9743Z" fill="white"/>
<path d="M876.254 -116.974C984.549 -106.074 1044.05 -43.0744 1010.05 115.526C989.048 186.626 1033.25 221.126 1115.94 232.626C1270.43 254.126 1559.22 195.226 1805.91 144.826C1845.2 136.826 1883.5 129.026 1919.9 121.726V121.126C1883.4 128.326 1845 136.226 1805.61 144.226C1559.02 194.526 1270.33 253.526 1116.04 232.026C1033.85 220.626 989.948 186.226 1010.85 115.626C1044.95 -43.3744 985.149 -106.574 876.354 -117.474C742.161 -131.074 533.372 -65.0744 334.083 -2.17442C212.789 36.1256 95.195 73.2256 0 90.7256V91.3256C95.295 73.9256 213.089 36.7256 334.383 -1.67442C533.572 -64.5744 742.261 -130.474 876.254 -116.974Z" fill="white"/>
<path d="M852.556 2.42571C942.851 15.7257 988.148 66.4257 951.95 181.726C878.454 298.426 894.953 356.426 966.15 377.526C1094.84 415.726 1402.53 332.926 1678.21 258.626C1764.01 235.526 1846.7 213.226 1919.9 195.726V195.126C1846.6 212.726 1763.81 235.026 1677.91 258.126C1402.33 332.326 1094.94 415.226 966.55 377.126C895.853 356.126 879.554 298.326 952.85 182.026C989.148 66.2257 943.551 15.4257 852.756 2.02571C723.462 -17.0743 502.574 39.9257 296.385 93.1257C188.49 120.826 84.5956 147.626 0 161.926V162.526C84.6956 148.226 188.69 121.426 296.685 93.5257C502.774 40.3257 723.562 -16.5743 852.556 2.42571Z" fill="white"/>
<path d="M1919.9 330.326C1810.51 361.726 1674.21 409.826 1532.42 459.826C1203.34 576.026 844.456 702.826 722.462 655.026C647.466 625.626 662.065 530.226 828.057 325.626C677.665 515.826 667.465 605.626 740.861 634.126C863.155 681.526 1217.84 558.126 1542.72 445.026C1680.41 397.126 1812.71 351.026 1919.8 320.626V319.926C1812.71 350.326 1680.21 396.426 1542.42 444.426C1217.74 557.426 863.255 680.826 741.361 633.526C666.465 604.526 679.365 510.926 840.956 310.626C694.964 496.526 686.464 584.426 759.76 612.526C882.054 659.326 1232.34 539.326 1552.92 429.426C1686.61 383.626 1815.21 339.526 1919.8 310.126V309.526C1815.11 338.926 1686.41 383.026 1552.52 428.926C1232.14 538.726 882.054 658.726 760.16 612.026C685.264 583.326 696.464 491.526 853.956 295.426C712.163 477.126 705.263 563.326 778.659 591.126C901.053 637.426 1246.94 520.726 1563.22 414.026C1692.91 370.226 1817.61 328.226 1919.9 299.826V299.226C1817.61 327.626 1692.71 369.826 1562.92 413.526C1246.84 520.126 901.153 636.726 779.159 590.626C704.263 562.326 713.763 472.426 866.555 280.826C729.362 458.026 724.162 542.326 797.558 569.626C920.052 615.326 1261.73 502.026 1573.72 398.526C1699.41 356.826 1820.21 316.826 1920 289.326V288.926C1820.21 316.326 1699.21 356.526 1573.42 398.226C1261.43 501.526 919.952 614.826 797.858 569.226C722.962 541.326 730.662 453.626 878.154 267.126C912.752 207.126 892.154 174.226 836.956 159.226C720.462 127.526 449.277 175.726 216.089 217.126C137.193 231.126 62.6967 244.326 0 253.526V254.126C62.6967 245.026 137.293 231.726 216.289 217.726C449.277 176.326 720.362 128.226 836.656 159.826C891.454 174.726 911.753 207.426 877.454 266.926C875.054 270.026 872.655 273.026 870.255 276.026C903.653 222.426 886.154 191.926 836.156 177.126C722.362 143.526 439.477 191.126 201.19 231.326C127.793 243.726 58.5969 255.326 0 263.726V264.326C58.6969 256.026 127.893 244.326 201.389 231.926C439.477 191.826 722.262 144.126 835.756 177.726C885.554 192.426 902.653 222.826 869.055 276.426C866.955 279.126 864.755 281.726 862.655 284.426C894.053 237.326 879.754 209.526 835.256 195.226C724.662 159.526 427.378 206.926 183.49 245.826C116.794 256.426 53.8972 266.426 0 273.926V274.526C53.8972 267.026 116.894 257.026 183.79 246.326C427.578 207.426 724.662 160.126 834.956 195.726C879.554 210.126 893.453 238.126 860.855 285.926C859.255 287.826 857.755 289.726 856.255 291.626C884.554 251.526 873.055 226.826 834.557 213.226C727.762 175.426 412.379 222.826 162.392 260.426C103.395 269.326 48.0975 277.626 0 284.126V284.726C48.0975 278.226 103.495 269.826 162.592 261.026C412.479 223.426 727.662 176.026 834.157 213.726C873.455 227.626 884.254 253.226 852.556 295.326L851.656 296.326C874.254 264.326 865.055 243.526 833.457 231.226C730.962 191.126 391.98 239.126 135.593 275.526C86.6955 282.426 40.6979 288.926 0 294.326V294.926C40.6979 289.526 86.7955 283.026 135.793 276.026C391.98 239.726 730.862 191.726 833.057 231.726C867.055 245.026 874.754 268.126 844.256 304.826C662.065 523.926 644.266 625.026 722.062 655.526C844.456 703.426 1203.54 576.626 1532.82 460.326C1674.41 410.326 1810.51 362.226 1919.9 330.926V330.326Z" fill="white"/>
<path d="M872.355 -99.9744C978.449 -88.6744 1036.05 -27.4744 1001.75 124.926C973.449 201.126 1011.45 239.026 1089.04 252.626C1236.74 278.426 1528.42 215.926 1780.51 161.926C1828.8 151.526 1875.7 141.526 1919.9 132.426V131.826C1875.7 140.926 1828.7 150.926 1780.31 161.326C1528.32 215.326 1236.84 277.826 1089.34 252.026C1012.25 238.526 974.549 200.826 1002.65 125.026C1037.15 -27.8744 979.149 -89.2744 872.555 -100.574C738.961 -114.774 529.072 -50.1744 329.283 11.3256C209.689 48.1256 93.7951 83.8256 0 100.826V101.426C93.8951 84.4256 209.889 48.7256 329.583 11.8256C529.272 -49.5744 739.062 -114.074 872.355 -99.9744Z" fill="white"/>
<path d="M868.655 -82.9743C972.349 -71.3743 1028.15 -11.8743 993.448 134.426C957.95 216.426 991.048 257.726 1065.74 272.926C1208.24 302.026 1502.32 236.026 1758.91 178.426C1815.01 165.826 1869.4 153.626 1919.9 142.926V142.326C1869.3 153.026 1814.91 165.226 1758.61 177.826C1502.22 235.326 1208.24 301.326 1065.94 272.326C991.748 257.226 958.85 216.126 994.248 134.526C1029.15 -12.2743 973.049 -71.8743 868.755 -83.5743C735.962 -98.4743 524.773 -35.1743 324.283 24.9257C206.489 60.2257 92.3952 94.4257 0 111.026V111.626C92.4952 95.0257 206.689 60.8257 324.583 25.4257C524.973 -34.5743 736.062 -97.8743 868.655 -82.9743Z" fill="white"/>
<path d="M880.254 -133.874C990.648 -123.274 1051.85 -58.6743 1018.35 106.126C1004.65 173.326 1058.24 204.326 1149.84 213.126C1313.13 228.826 1597.52 173.626 1836.8 127.226C1865.3 121.726 1893.1 116.326 1920 111.226V110.626C1893 115.726 1865.1 121.226 1836.6 126.726C1597.42 173.126 1313.13 228.226 1150.04 212.626C1058.94 203.926 1005.75 173.026 1019.25 106.226C1052.85 -58.8743 991.348 -123.774 880.454 -134.374C745.461 -147.374 537.572 -80.0743 338.782 -15.7743C215.889 24.0257 96.495 62.6257 0 80.5257V81.1257C96.595 63.2257 216.089 24.6257 339.082 -15.2743C537.772 -79.5743 745.561 -146.774 880.254 -133.874Z" fill="white"/>
<path d="M838.656 124.225C902.853 139.125 929.452 176.225 893.954 247.925C763.16 418.826 760.961 500.125 834.957 526.925C957.95 571.325 1291.33 464.826 1594.92 367.825C1712.31 330.325 1825.31 294.225 1919.9 268.825V268.225C1825.21 293.625 1712.11 329.725 1594.62 367.325C1291.23 464.326 958.05 570.725 835.457 526.525C761.86 499.925 764.26 418.826 894.854 248.325C930.552 176.125 903.753 138.925 839.056 123.825C718.163 95.6255 464.876 145.325 240.388 189.225C152.592 206.425 69.2965 222.725 0.100098 233.225V233.825C69.3965 223.325 152.792 207.025 240.688 189.825C464.876 145.725 718.063 96.1255 838.656 124.225Z" fill="white"/>
<path d="M841.556 89.1257C914.252 103.826 946.651 144.926 910.653 229.126C796.559 384.126 799.558 458.826 872.555 484.126C996.348 527.126 1321.73 427.326 1617.12 336.726C1726.11 303.326 1830.9 271.226 1920 247.926V247.326C1830.8 270.626 1725.81 302.826 1616.82 336.226C1321.63 426.726 996.448 526.426 872.955 483.626C800.458 458.426 797.658 384.026 911.453 229.326C947.751 144.826 915.052 103.426 841.856 88.6257C717.763 63.5257 477.275 115.026 259.786 161.526C164.891 181.726 74.4961 201.126 0 212.726V213.326C74.5961 201.626 165.091 182.326 259.986 162.026C477.375 115.526 717.663 64.0257 841.556 89.1257Z" fill="white"/>
<path d="M849.956 19.6257C937.051 33.3257 980.049 82.0257 943.751 191.126C862.255 315.326 876.054 376.626 947.351 398.726C1074.64 438.126 1385.53 351.826 1665.11 274.226C1755.81 249.026 1843.2 224.826 1920 206.026V205.426C1843.2 224.226 1755.61 248.426 1664.81 273.626C1385.43 351.126 1074.74 437.326 947.751 398.126C876.854 376.226 863.355 315.026 944.651 191.226C981.049 81.7257 937.851 32.7257 850.256 18.9257C721.662 -1.07432 497.874 54.7257 289.985 106.626C184.29 132.926 82.7957 158.226 0 172.026V172.626C82.8957 158.826 184.49 133.526 290.285 107.126C498.074 55.3257 721.762 -0.474323 849.956 19.6257Z" fill="white"/>
<path d="M837.556 142.026C897.153 157.026 920.652 191.826 885.654 257.526C746.461 436.226 741.561 520.926 816.257 548.326C938.951 593.326 1276.43 483.426 1584.22 383.226C1705.81 343.626 1822.71 305.526 1919.9 279.126V278.526C1822.61 304.926 1705.51 343.126 1583.82 382.726C1276.23 482.926 938.951 592.726 816.657 547.826C742.461 520.626 747.461 436.126 886.454 257.726C921.652 191.726 897.953 156.626 837.856 141.526C718.963 111.626 457.476 160.526 228.988 203.226C145.392 218.826 66.1965 233.626 0 243.426V244.026C66.1965 234.226 145.492 219.426 229.188 203.826C457.576 161.026 718.963 112.226 837.556 142.026Z" fill="white"/>
<path d="M840.056 106.626C908.553 121.526 938.151 160.626 902.353 238.526C779.859 401.426 780.259 479.426 853.755 505.526C977.049 549.226 1306.43 446.126 1605.92 352.326C1719.11 316.926 1828 282.726 1919.9 258.426V257.826C1827.9 282.126 1718.81 316.326 1605.52 351.826C1306.23 445.526 977.049 548.626 854.156 505.026C781.159 479.126 780.859 401.326 903.053 238.826C939.051 160.526 909.253 121.126 840.256 106.226C717.663 79.6256 471.275 130.126 250.487 175.426C158.992 194.026 71.9962 211.826 0 222.926V223.526C72.0962 212.426 159.192 194.626 250.687 175.826C471.375 130.626 717.663 80.1256 840.056 106.626Z" fill="white"/>
<path d="M847.456 36.9257C931.251 50.9257 971.749 97.8257 935.451 200.726C845.956 332.426 856.955 397.126 928.552 420.026C1054.65 460.426 1369.03 370.826 1652.41 289.926C1747.91 262.726 1839.8 236.526 1919.9 216.526V215.926C1839.7 235.826 1747.71 262.126 1652.11 289.326C1368.83 370.126 1054.74 459.726 928.952 419.426C857.755 396.626 846.956 332.126 936.251 200.726C972.749 97.4257 931.951 50.3257 847.656 36.2257C720.162 15.0257 493.074 69.6257 283.185 120.126C179.991 145.126 80.8958 168.926 0 182.226V182.826C80.9958 169.526 180.091 145.726 283.485 120.826C493.274 70.3257 720.262 15.7257 847.456 36.9257Z" fill="white"/>
<path d="M843.256 71.6258C919.852 86.1258 955.15 129.226 918.852 219.526C812.958 366.726 818.657 438.126 891.154 462.626C1015.55 504.826 1337.13 408.426 1628.52 321.126C1733.11 289.826 1833.7 259.626 1919.9 237.426V236.926C1833.6 259.126 1732.81 289.326 1628.12 320.726C1336.93 408.026 1015.55 504.326 891.454 462.326C819.457 437.926 813.958 366.826 919.552 219.926C955.95 129.126 920.452 85.8258 843.356 71.2258C718.063 47.5258 482.675 100.026 267.986 147.826C170.291 169.526 76.796 190.326 0 202.626V203.226C76.896 191.026 170.491 170.126 268.386 148.326C482.975 100.426 718.163 48.0258 843.256 71.6258Z" fill="white"/>
<path d="M845.256 54.2254C925.552 68.4254 963.45 113.525 927.152 210.125C829.457 349.525 837.856 417.625 909.853 441.425C1035.05 482.725 1352.93 389.725 1640.21 305.625C1740.31 276.325 1836.7 248.125 1919.9 227.125V226.525C1836.6 247.625 1740.11 275.825 1639.91 305.125C1352.73 389.125 1035.05 482.125 910.153 440.925C838.656 417.325 830.457 349.525 927.852 210.425C964.35 113.425 926.152 68.1254 845.356 53.8254C718.963 31.2254 487.975 84.8255 275.886 134.025C175.291 157.325 78.8959 179.625 0 192.425V193.025C78.9959 180.225 175.491 157.925 276.186 134.525C488.175 85.4255 719.062 31.8254 845.256 54.2254Z" fill="white"/>
</g>
</g>
<defs>
<clipPath id="clip0_694_854">
<rect width="1920" height="738" fill="white"/>
</clipPath>
</defs>
</svg>
