<svg width="32" height="32" viewBox="0 0 32 32" fill="none" xmlns="http://www.w3.org/2000/svg">
<path d="M3.55547 4C3.55547 1.79086 5.34633 0 7.55547 0H19.5555L28.4444 8.88889V28C28.4444 30.2091 26.6535 32 24.4444 32H7.55546C5.34632 32 3.55547 30.2091 3.55547 28V4Z" fill="#DEDEDE"/>
<path d="M17.7777 16.8888V15.4073C17.7777 14.6215 17.4967 13.8678 16.9966 13.3122C16.4965 12.7565 15.8183 12.4443 15.111 12.4443H9.77769C9.07045 12.4443 8.39217 12.7565 7.89207 13.3122C7.39197 13.8678 7.11102 14.6215 7.11102 15.4073V16.8888" fill="#A6A6A6"/>
<path d="M12.4443 11.5555C13.9171 11.5555 15.111 10.3616 15.111 8.88883C15.111 7.41608 13.9171 6.22217 12.4443 6.22217C10.9716 6.22217 9.77768 7.41608 9.77768 8.88883C9.77768 10.3616 10.9716 11.5555 12.4443 11.5555Z" fill="#A6A6A6"/>
<path d="M7.96916 23.2086H17.3083C17.5124 23.2086 17.7081 23.1276 17.8525 22.9832C17.9968 22.8389 18.0779 22.6431 18.0779 22.439C18.0779 22.2349 17.9968 22.0392 17.8525 21.8948C17.7081 21.7505 17.5124 21.6694 17.3083 21.6694H7.96916C7.76504 21.6694 7.56929 21.7505 7.42497 21.8948C7.28064 22.0392 7.19955 22.2349 7.19955 22.439C7.19955 22.6431 7.28064 22.8389 7.42497 22.9832C7.56929 23.1276 7.76504 23.2086 7.96916 23.2086Z" fill="#A6A6A6"/>
<path d="M22.5916 25.7222H7.96916C7.76504 25.7222 7.56929 25.8033 7.42497 25.9476C7.28064 26.0919 7.19955 26.2877 7.19955 26.4918C7.19955 26.6959 7.28064 26.8916 7.42497 27.036C7.56929 27.1803 7.76504 27.2614 7.96916 27.2614H22.5916C22.7957 27.2614 22.9914 27.1803 23.1358 27.036C23.2801 26.8916 23.3612 26.6959 23.3612 26.4918C23.3612 26.2877 23.2801 26.0919 23.1358 25.9476C22.9914 25.8033 22.7957 25.7222 22.5916 25.7222Z" fill="#A6A6A6"/>
<path fill-rule="evenodd" clip-rule="evenodd" d="M19.5555 0V4.88889C19.5555 7.09803 21.3463 8.88889 23.5555 8.88889H28.4444L19.5555 0Z" fill="#A6A6A6"/>
</svg>
